<?xml version="1.0" encoding="utf-8"?>
<!-- Generator: Adobe Illustrator 22.1.0, SVG Export Plug-In . SVG Version: 6.00 Build 0)  -->
<svg version="1.1" id="Layer_1" xmlns="http://www.w3.org/2000/svg" xmlns:xlink="http://www.w3.org/1999/xlink" x="0px" y="0px"
	 viewBox="0 0 512 512" style="enable-background:new 0 0 512 512;" xml:space="preserve">
<style type="text/css">
	.st0{fill:#F9D71C;}
</style>
<path class="st0" d="M480,512H32c-17.6,0-32-14.4-32-32V32C0,14.4,14.4,0,32,0h448c17.6,0,32,14.4,32,32v448
	C512,497.6,497.6,512,480,512z"/>
<path d="M450.4,230.5h-24.2c-11.1-74.6-70.1-133.7-144.7-144.7V61.6c0-5.3-4.3-9.6-9.6-9.6H240c-5.3,0-9.6,4.3-9.6,9.6v24.2
	c-74.5,11-133.6,70.1-144.6,144.7H61.6c-5.3,0-9.6,4.3-9.6,9.6V272c0,5.3,4.3,9.6,9.6,9.6h24.2c11.1,74.6,70.1,133.7,144.7,144.7
	v24.2c0,5.3,4.3,9.6,9.6,9.6H272c5.3,0,9.6-4.3,9.6-9.6v-24.2c74.6-11.1,133.7-70.1,144.7-144.7h24.2c5.3,0,9.6-4.3,9.6-9.6v-31.9
	C460,234.8,455.7,230.5,450.4,230.5z M281.5,374.4V342c0-5.3-4.3-9.6-9.6-9.6H240c-5.3,0-9.6,4.3-9.6,9.6v32.4
	c-46.4-9.9-83-46.5-92.9-92.9h32.4c5.3,0,9.6-4.3,9.6-9.6V240c0-5.3-4.3-9.6-9.6-9.6h-32.4c9.9-46.4,46.5-83,92.9-92.9v32.4
	c0,5.3,4.3,9.6,9.6,9.6h31.9c5.3,0,9.6-4.3,9.6-9.6v-32.4c46.4,9.9,83,46.5,92.9,92.9H342c-5.3,0-9.6,4.3-9.6,9.6v31.9
	c0,5.3,4.3,9.6,9.6,9.6h32.4C364.6,327.9,327.9,364.5,281.5,374.4z M281.5,256c0,14.1-11.4,25.5-25.5,25.5s-25.5-11.4-25.5-25.5
	s11.4-25.5,25.5-25.5S281.5,241.9,281.5,256z"/>
</svg>
