<?xml version="1.0" encoding="utf-8"?>
<!-- Generator: Adobe Illustrator 22.1.0, SVG Export Plug-In . SVG Version: 6.00 Build 0)  -->
<svg version="1.1" id="Layer_1" xmlns="http://www.w3.org/2000/svg" xmlns:xlink="http://www.w3.org/1999/xlink" x="0px" y="0px"
	 viewBox="0 0 1650 1650" style="enable-background:new 0 0 1650 1650;" xml:space="preserve">
<style type="text/css">
	.st0{fill:#FFFFFF;}
	.st1{opacity:0.84;fill:#FFFFFF;enable-background:new    ;}
</style>
<title>support</title>
<g id="Illustration">
	<path d="M96,0h1458c53,0,96,43,96,96v1458c0,53-43,96-96,96H96c-53,0-96-43-96-96V96C0,43,43,0,96,0z"/>
	<path class="st0" d="M168.9,82.5h1312.2c47.7,0,86.4,38.7,86.4,86.4v1312.2c0,47.7-38.7,86.4-86.4,86.4H168.9
		c-47.7,0-86.4-38.7-86.4-86.4V168.9C82.5,121.2,121.2,82.5,168.9,82.5z"/>
	<g>
		<path d="M997.3,586.8l13.1-13.5c81.2,78.4,87.4,209.6,87.6,215.1l-18.8,0.8C1079.2,787.8,1073.1,660,997.3,586.8z"/>
		<path d="M611.5,586.8l-13.1-13.5c-81.2,78.4-87.4,209.6-87.6,215.1l18.8,0.8C529.7,787.8,535.7,660,611.5,586.8z"/>
		<path d="M577.6,580.5c126.5-143.1,324.3-143.1,450.9,0c8.6,9.7,9.8,24.3,3.2,31.6l0,0c-6.6,7.3-17.8,5.7-25.4-2.9
			c-114.1-129-292.3-129-406.4,0c-7.6,8.6-18.8,10.2-25.4,2.9C567.8,604.8,569,590.2,577.6,580.5z"/>
		<path d="M510.3,705.9v316.7l-6.3,1.3c-8.5,1.4-15.6-3.1-19.2-10.9c-1.2-2.7-2.9-5.9-4.7-9.7c-32.4-9.4-58.1-65.9-58.1-107.8
			s37.1-70.6,37.1-70.6v-38.3c0-15,5.1-29.6,13.1-42.3l27.5-42.1c1.7-2.6,4.1-3.8,7.1-2.9C509.8,700.1,510.4,702.8,510.3,705.9z"/>
		<path d="M580.9,786.3l0,238.5c0,19.1-15.5,34.5-34.5,34.5h-1.4c-19.1,0-34.5-15.5-34.5-34.5V786.3c0-19.1,15.5-34.5,34.5-34.5h1.4
			C565.4,751.8,580.9,767.2,580.9,786.3z"/>
		<path d="M856.1,1143.5c1.3-0.1,128.3-3.7,236.8-48c43.3-17.7,73.1-54.2,88.7-108.5c7.2-25.6,10.8-52,10.6-78.6l9.4-0.4l-9.4,0.4
			l18.8-0.8c0.1,1.6,1.5,39.7-11.1,84c-17,59.6-51.5,101.5-99.9,121.3c-111.7,45.6-238.1,49.2-243.5,49.3L856.1,1143.5z"/>
		<path d="M862.8,1149.7v2.9c0,13.3-10.8,24.2-24.2,24.2h-75.5c-13.3,0-24.2-10.8-24.2-24.2v-2.9c0-13.3,10.8-24.2,24.2-24.2h75.5
			C852,1125.5,862.8,1136.3,862.8,1149.7z"/>
		<path d="M1228,908.1v3.4c0,13.2-10.7,23.9-23.9,23.9h-37.6c-13.2,0-23.9-10.7-23.9-23.9v-3.4c0-13.2,10.7-23.9,23.9-23.9h37.6
			C1217.3,884.2,1228,894.9,1228,908.1z"/>
		<path d="M1097.7,709v316.7l7,1.3c8.5,1.4,16.3-3.1,19.8-10.9c1.2-2.7,2.8-5.9,4.5-9.7c32.4-9.4,57.7-65.9,57.7-107.7
			S1149,828,1149,828v-38.3c-0.1-15-4.4-29.7-12.5-42.3l-26.9-42.1c-1.5-2.6-4.6-3.8-7.5-2.9C1099.1,703.2,1097.7,706,1097.7,709z"
			/>
		<path d="M1097.7,790.6v238.5c0,19.1-15.5,34.5-34.5,34.5h-1.4c-19.1,0-34.5-15.5-34.5-34.5V790.6c0-19.1,15.5-34.5,34.5-34.5h1.4
			C1082.2,756.1,1097.7,771.5,1097.7,790.6z"/>
	</g>
	<g>
		<path d="M711.3,750.3h187.5c55.9,0,101.3,45.3,101.3,101.3v1.4c0,55.9-45.3,101.3-101.3,101.3H711.3
			C655.3,954.2,610,908.9,610,853v-1.4C610,795.7,655.3,750.3,711.3,750.3z"/>
		<path d="M839.9,930.1l74.9,6.3l-117.3,133.2c-0.5,0.6-1.4,0.6-1.9,0.1c-0.4-0.4-0.6-0.9-0.4-1.5L839.9,930.1z"/>
		<path class="st1" d="M881.5,858.5c0,11.1,9,20.2,20.2,20.2c11.1,0,20.2-9,20.2-20.2c0-11.1-9-20.2-20.2-20.2c0,0,0,0,0,0
			C890.5,838.3,881.5,847.4,881.5,858.5C881.5,858.5,881.5,858.5,881.5,858.5z"/>
		<path class="st1" d="M780.2,858.5c0,11.1,9,20.2,20.2,20.2c11.1,0,20.2-9,20.2-20.2c0-11.1-9-20.2-20.2-20.2c0,0,0,0,0,0
			C789.2,838.3,780.2,847.4,780.2,858.5C780.2,858.5,780.2,858.5,780.2,858.5z"/>
		<path class="st1" d="M678.9,858.5c0,11.1,9,20.2,20.2,20.2c11.1,0,20.2-9,20.2-20.2c0-11.1-9-20.2-20.2-20.2c0,0,0,0,0,0
			C688,838.3,678.9,847.4,678.9,858.5C678.9,858.5,678.9,858.5,678.9,858.5z"/>
	</g>
</g>
</svg>
