<?xml version="1.0" encoding="utf-8"?>
<!-- Generator: Adobe Illustrator 22.1.0, SVG Export Plug-In . SVG Version: 6.00 Build 0)  -->
<svg version="1.1" id="Layer_1" xmlns="http://www.w3.org/2000/svg" xmlns:xlink="http://www.w3.org/1999/xlink" x="0px" y="0px"
	 viewBox="0 0 460 460" style="enable-background:new 0 0 460 460;" xml:space="preserve">
<style type="text/css">
	.st0{fill:#FFFFFF;}
</style>
<path d="M26.8,0h406.5C448,0,460,12,460,26.8v406.5c0,14.8-12,26.8-26.8,26.8H26.8C12,460,0,448,0,433.2V26.8C0,12,12,0,26.8,0z"/>
<path class="st0" d="M47.1,23h365.8c13.3,0,24.1,10.8,24.1,24.1v365.8c0,13.3-10.8,24.1-24.1,24.1H47.1C33.8,437,23,426.2,23,412.9
	V47.1C23,33.8,33.8,23,47.1,23z"/>
<path d="M203.7,136.9l-2.5,0.4v43.8l2.5,0.4l6.9,1l1.8,0.3v-47.3l-1.8,0.3L203.7,136.9z M179.9,169l17,6v-31.8l-17,6V169z
	 M287.9,206.9l-6.1,30.2h28l-8.6-28.9L287.9,206.9z M278.7,298.1V336H395v-37.9H278.7z M171.6,164.1h4.1v-9.9h-14L171.6,164.1z
	 M304.3,204.2h0.2l9.7,33l9.2,31.2l-13.8,25.4h77.8l-5-15.7h-20.6l-0.6-2.1l-0.7-2.2H381l-4.3-13.6h-20l-0.6-2.1l-0.7-2.2h19.9
	l-4.3-13.6h-19.5l-0.6-2.1l-0.7-2.2h19.4l-4.3-13.6h-19l-1.2-4.2h18.8l-4.8-15l35.1-22.8v-50.3l-21.5-8.3H229.8l-11.6,6.8l-1.6,0.9
	V186l1.2,1.5l7.1,8.9l63.5,6.3L304.3,204.2z M306,146.3L306,146.3l5-0.1l-15.4,27.4h-4.9L306,146.3z M247.3,173.6L247.3,173.6
	l-5,0.1l15.4-27.4h4.9L247.3,173.6z M271.5,173.6L271.5,173.6l-5,0.1l15.4-27.4h4.9L271.5,173.6z M123.2,154.2l9.9,9.9h13.3
	l-9.9-9.9H123.2z M142.5,154.2l9.9,9.9h13.3l-9.9-9.9H142.5z M65,154.2l9.9,9.9h13.3l-9.9-9.9H65z M84.6,154.2l9.9,9.9h13.3
	l-9.9-9.9H84.6z M103.8,154.2l9.9,9.9H127l-9.9-9.9H103.8z"/>
</svg>
