<svg id="Layer_1" data-name="Layer 1" xmlns="http://www.w3.org/2000/svg" viewBox="0 0 759 413"><defs><style>.cls-1,.cls-2{fill:#f9d71c;}.cls-2,.cls-4{stroke:#fff;}.cls-3{fill:#1338be;}.cls-4{fill:none;}.cls-5{font-size:105px;font-family:BodoniMT-Bold, Bodoni MT;font-weight:700;}.cls-5,.cls-6{fill:#fff;}.cls-6{font-size:75px;font-family:Aileron-Thin, Aileron;letter-spacing:0em;}</style></defs><title>Full_Colour_White_Text</title><path class="cls-1" d="M171.19,69.22l-18.95-5.08A2.36,2.36,0,0,0,151,68.7L170,73.78a2.55,2.55,0,0,0,.61.08,2.36,2.36,0,0,0,.61-4.64Z"/><path class="cls-1" d="M170,110.09,151,115.17a2.35,2.35,0,0,0,.6,4.63,2.64,2.64,0,0,0,.62-.08l18.95-5.08a2.36,2.36,0,0,0-1.22-4.55Z"/><path class="cls-1" d="M179.64,133.44a2.35,2.35,0,0,0-2.35-4.08l-3.07,1.77h0l-40.84,23.58a2.36,2.36,0,0,0,1.18,4.4,2.33,2.33,0,0,0,1.18-.32l26.91-15.53h0Z"/><path class="cls-1" d="M192.68,146.09a2.37,2.37,0,0,0-3.34,0L175.47,160a2.35,2.35,0,1,0,3.33,3.33l13.88-13.87A2.35,2.35,0,0,0,192.68,146.09Z"/><path class="cls-1" d="M208.54,158.26a2.35,2.35,0,0,0-3.22.86l-1.77,3.07h0L180,203a2.36,2.36,0,0,0,.86,3.22,2.39,2.39,0,0,0,1.18.31,2.35,2.35,0,0,0,2-1.18l15.54-26.91h0l9.81-17A2.35,2.35,0,0,0,208.54,158.26Z"/><path class="cls-1" d="M227,165.91a2.36,2.36,0,0,0-2.89,1.67l-5.07,18.95a2.34,2.34,0,0,0,1.66,2.88,2.18,2.18,0,0,0,.61.08,2.36,2.36,0,0,0,2.28-1.74l5.08-18.95A2.37,2.37,0,0,0,227,165.91Z"/><path class="cls-1" d="M246.83,168.52a2.35,2.35,0,0,0-2.35,2.36v50.69a2.36,2.36,0,1,0,4.71,0V170.88A2.36,2.36,0,0,0,246.83,168.52Z"/><path class="cls-1" d="M269.54,167.58A2.36,2.36,0,1,0,265,168.8l5.08,18.95a2.35,2.35,0,0,0,2.27,1.74,2.13,2.13,0,0,0,.61-.08,2.35,2.35,0,0,0,1.67-2.88Z"/><path class="cls-1" d="M164.35,94.29h3.54a2.36,2.36,0,0,0,0-4.72h-50.7a2.36,2.36,0,0,0,0,4.72h47.16Z"/><path class="cls-1" d="M298.16,176.12h0l-6.46-11.18-1.58-2.74h0l-1.77-3.07a2.36,2.36,0,0,0-4.08,2.36l3.35,5.8,22,38.1a2.35,2.35,0,1,0,4.08-2.35Z"/><circle class="cls-2" cx="283.83" cy="100.93" r="89" transform="translate(11.76 230.26) rotate(-45)"/><path class="cls-3" d="M326.36,214.13s24.82-23,23.64-48.17l-1.48-2.07s-9.45,5.62-15.95,4.43l-3.84,2.37s-3.25-2.66-8.87,1.77c0,0-4.73-7.68-10.05-5.32l3.55-3.54s-2.07-7.1-18.62-15.37c0,0-3.25-3.55-7.68-14.18l-6.5-4.14s-.89-6.21-1.77-12.71c0,0-3.55-4.72-7.39-5a56.92,56.92,0,0,1-.89-8.27s-3.25-.3-8-10.64c0,0-5.61-9.75-7.09-10.64l-2.36-4.43,1.18-1.77s5.32,8.86,9.16,10.34c0,0,5-6.21-.29-16.85,0,0-5.62,2.66-13.3-1.18,0,0-7.39,1.48-10.64,3.84,0,0-2.66-2.66-8.27-.88,0,0,1.77-4.14-14.48-3.25l4.73-1.18-9.76-1.78a2,2,0,0,0,.3-2.66c-.89-1.77-11.82-2.66-15.66,5.32,0,0,4.14,4.14-2.36,6.5,0,0-8.28-5.32-14.78-4.73,0,0-3.25-3-3.25-5.91,0,0-5.32-3-10.64-1.18,0,0-3.25-5.32-8-3.54,0,0-6.5-3.55,1.48-7.69a5.37,5.37,0,0,0-3-6.5s2.66-.29,3-4.13c0,0-5.61-2.66-10.34,1.47,0,0-4.73-3.25-13,.3,0,0-12.71-5-23.64,1.77h-5.32s-9.75,6.8-18.91-2.66c0,0-3.84,1.18-6.5,7.09,0,0-7.69,5.32-13.6,6.8,0,0-5.31,5.32-4.72,11.82a28.88,28.88,0,0,1-15.37,8.87s-4.43,2.95-5.61,7.38c0,0-5.62,0-8.87,9.16,0,0-10.34,8.28-13,16,0,0,6.8,13-7.68,33.09l3.54,6.21-2.66,7.09S25,159.46,29.1,181c0,0,10.34,7.39,23.34,16.55,0,0,23.94-7.09,31.62-.59,0,0,33.68-18,37.82,1.47,0,0-.29,3.25,15.37-.59,0,0,10,6.21,2.95,16.26a13.21,13.21,0,0,1-2.36,10.63,49.37,49.37,0,0,1,1.47,5.62s21.28,20.09,21,33.39l-2.07,1.77s5.91,10.93,3.84,16-8.28,1.48-8.57,27.77c0,0,13.59,19.21,13.59,25.71,0,0-2.07,16.25,8.57,26.3,0,0,5.91,10.93,5.91,13,0,0,5.32,3.25,1.18,7.69,0,0,.89,8.56,8.87,9.15a32.23,32.23,0,0,1,20.68-2.36c11.23,2.66,23.94-10.64,29.85-20.39l7.09-5.32s5.91-7.68,2.36-12.7c0,0,1.48-4.14,5.62-4.73,0,0,13.88,0,8.27-20.39,0,0-5.32-3.55,6.8-8.86,0,0,3.84-2.37,5-5.62,0,0,16.55-3.54,18.32-13.59,0,0-.3-13-.3-16.84,0,0,4.73-3.26-2.95-6.51a10,10,0,0,0-2.95-8s5.9-6.5-.89-10.35A42.23,42.23,0,0,1,304.79,231S314,216.49,326.36,214.13Z"/><rect class="cls-4" x="194.75" y="176.4" width="25.96" height="26.31"/><rect class="cls-4" x="168.4" y="149.69" width="25.96" height="26.31"/><rect class="cls-4" x="194.75" y="149.69" width="25.96" height="26.31"/><rect class="cls-4" x="142.04" y="149.69" width="25.96" height="26.31"/><path class="cls-4" d="M194.36,336.66h-26v7.14c.79,5.34,2.91,12,8.28,17.07,0,0,.45.84,1.11,2.1h16.57Z"/><path class="cls-4" d="M142.74,202.71H168V176.4H142v25.16A11.71,11.71,0,0,1,142.74,202.71Z"/><rect class="cls-4" x="194.75" y="203.11" width="25.96" height="26.31"/><rect class="cls-4" x="194.75" y="336.66" width="25.96" height="26.31"/><path class="cls-4" d="M141.65,231.52v-1.7h-1.28a3.19,3.19,0,0,1,.06.51Z"/><rect class="cls-4" x="168.4" y="309.95" width="25.96" height="26.31"/><path class="cls-4" d="M168,336.66c0,.78,0,1.76,0,2.89v-2.89Z"/><rect class="cls-4" x="194.75" y="283.24" width="25.96" height="26.31"/><rect class="cls-4" x="194.75" y="229.82" width="25.96" height="26.31"/><rect class="cls-4" x="194.75" y="256.53" width="25.96" height="26.31"/><rect class="cls-4" x="115.69" y="122.98" width="25.96" height="26.31"/><rect class="cls-4" x="168.4" y="229.82" width="25.96" height="26.31"/><rect class="cls-4" x="221.11" y="229.82" width="25.96" height="26.31"/><rect class="cls-4" x="221.11" y="149.69" width="25.96" height="26.31"/><rect class="cls-4" x="221.11" y="203.11" width="25.96" height="26.31"/><rect class="cls-4" x="194.75" y="122.98" width="25.96" height="26.31"/><rect class="cls-4" x="142.04" y="122.98" width="25.96" height="26.31"/><rect class="cls-4" x="168.4" y="122.98" width="25.96" height="26.31"/><rect class="cls-4" x="221.11" y="176.4" width="25.96" height="26.31"/><path class="cls-4" d="M243,367.94l4.1-3.07v-1.5h-26v24.42C229.9,385,238.44,375.41,243,367.94Z"/><polygon class="cls-4" points="247.46 363.37 247.46 364.57 249.07 363.37 247.46 363.37"/><rect class="cls-4" x="221.11" y="336.66" width="25.96" height="26.31"/><rect class="cls-4" x="221.11" y="283.24" width="25.96" height="26.31"/><rect class="cls-4" x="247.46" y="283.24" width="25.96" height="26.31"/><path class="cls-4" d="M273.82,310v5.58a12.37,12.37,0,0,0,4.22-5s.78-.17,2-.53Z"/><rect class="cls-4" x="221.11" y="256.53" width="25.96" height="26.31"/><path class="cls-4" d="M220.71,69.56h-23c.79,1.36,1.39,3.82-3,5.45V95.88h26Z"/><path class="cls-4" d="M220.71,68.75c-1,0-2.14,0-3.37.12l3.37-.85v-.58l-8.38-1.52a2,2,0,0,0,.29-2.65c-.88-1.77-11.78-2.65-15.61,5.3a5.65,5.65,0,0,1,.48.6h23.22Z"/><rect class="cls-4" x="221.11" y="122.98" width="25.96" height="26.31"/><path class="cls-4" d="M112.74,45h-5.31a14.48,14.48,0,0,1-18.1-1.91V69.17h26V43.64A22.45,22.45,0,0,0,112.74,45Z"/><rect class="cls-4" x="221.11" y="96.27" width="25.96" height="26.31"/><path class="cls-4" d="M273.82,122.59h6.39c-.22-1.61-.46-3.34-.7-5.11,0,0-2.57-3.4-5.69-4.6Z"/><path class="cls-4" d="M247.46,122.59h26v-9.85a5.73,5.73,0,0,0-1.28-.27,56,56,0,0,1-.88-8.25s-2.66-.24-6.67-8H247.46Z"/><rect class="cls-4" x="89.33" y="69.56" width="25.96" height="26.31"/><path class="cls-4" d="M36.23,149.29V123h-14c-.92,5.22-3.35,11.74-8.77,19.25L17,148.42l-.33.87Z"/><path class="cls-4" d="M142,69.17h26V62.82a10.55,10.55,0,0,0-1.93.45s-3.24-5.31-8-3.54c0,0-6.48-3.53,1.48-7.66a5.36,5.36,0,0,0-3-6.48,3.53,3.53,0,0,0,2.7-2.74h-10l-.11.09-.13-.09H142Z"/><path class="cls-4" d="M36.23,122.59V96.27h-5.5c-3.26,3.09-8,8.14-9.63,13,0,0,2.56,4.92,1.17,13.36Z"/><path class="cls-4" d="M36.23,149.69H16.5l-2.18,5.8S24.43,159,29.31,176h6.92Z"/><path class="cls-4" d="M349.05,164s-9.43,5.6-15.92,4.42l-3.83,2.36a4.6,4.6,0,0,0-2.77-.79v6h23.18a40.36,40.36,0,0,0,.81-9.9Z"/><path class="cls-4" d="M115.69,43.46V69.17h26V42.85h-4.37c-.32.13-.64.24-1,.38,0,0-.4-.16-1.11-.38h-18C116.72,43,116.21,43.23,115.69,43.46Z"/><rect class="cls-4" x="194.75" y="309.95" width="25.96" height="26.31"/><path class="cls-4" d="M162.19,282.84H168V256.53h-8.11a19,19,0,0,1,1.46,7.1l-2.06,1.77s5.89,10.9,3.83,15.91A5.57,5.57,0,0,1,162.19,282.84Z"/><path class="cls-4" d="M258,345.25a9.77,9.77,0,0,0,9.32-8.59H247.46V363h2.14l.44-.34s5.9-7.66,2.36-12.67C252.4,350,253.87,345.84,258,345.25Z"/><rect class="cls-4" x="168.4" y="176.4" width="25.96" height="26.31"/><path class="cls-4" d="M142,229.82v2.1c3.89,3.93,13.78,14.5,17.69,24.21H168V229.82Z"/><rect class="cls-4" x="168.4" y="283.24" width="25.96" height="26.31"/><path class="cls-4" d="M161.83,283.24c-2.63,2.71-7,3.81-7.25,25.77l.38.54h13V283.24Z"/><path class="cls-4" d="M168,333.43V310H155.23C157.76,313.61,166.83,327.09,168,333.43Z"/><rect class="cls-4" x="221.11" y="309.95" width="25.96" height="26.31"/><path class="cls-4" d="M247.46,310v26.31h19.92c.43-2.81.2-6.49-1.13-11.34,0,0-5.3-3.54,6.78-8.84,0,0,.15-.09.39-.26V310Z"/><rect class="cls-4" x="168.4" y="256.53" width="25.96" height="26.31"/><rect class="cls-4" x="168.4" y="203.11" width="25.96" height="26.31"/><path class="cls-4" d="M142,229.42h26V203.11H142.93c1.18,2.51,1.52,5.87-.89,9.9Z"/><path class="cls-4" d="M141.65,213.63c-.11.17-.21.33-.33.5A13.21,13.21,0,0,1,139,224.74s.95,3,1.32,4.68h1.37Z"/><path class="cls-4" d="M273.82,309.55h7.51c4.91-1.61,13.71-5.46,15-12.62,0,0-.19-8.42-.26-13.69H273.82Z"/><rect class="cls-4" x="62.98" y="96.27" width="25.96" height="26.31"/><rect class="cls-4" x="62.98" y="149.69" width="25.96" height="26.31"/><rect class="cls-4" x="62.98" y="122.98" width="25.96" height="26.31"/><path class="cls-4" d="M85.33,197s1.39-.74,3.61-1.75V176.4H63v19.1C70.56,194.12,80.79,193.2,85.33,197Z"/><path class="cls-4" d="M320.46,172.58s-4.71-7.66-10-5.3l3.53-3.54s-1.66-5.65-13.81-12.75v25h26v-5.95A10.46,10.46,0,0,0,320.46,172.58Z"/><path class="cls-4" d="M300.17,203.11v26.31h6.3c2.65-3.65,10.13-12.86,19.66-15.11v-11.2Z"/><rect class="cls-4" x="300.17" y="176.4" width="25.96" height="26.31"/><rect class="cls-4" x="142.04" y="69.56" width="25.96" height="26.31"/><path class="cls-4" d="M221.11,68.75v.42h6.42A36.27,36.27,0,0,0,221.11,68.75Z"/><polygon class="cls-4" points="221.11 67.92 222.05 67.69 221.11 67.52 221.11 67.92"/><rect class="cls-4" x="62.98" y="69.56" width="25.96" height="26.31"/><path class="cls-4" d="M168.4,62.78v6.39h10.42a8.11,8.11,0,0,1-2.14-4.72A15.73,15.73,0,0,0,168.4,62.78Z"/><path class="cls-4" d="M82.09,49.42s-7.66,5.3-13.55,6.78c0,0-5.3,5.3-4.72,11.78,0,0-.3.36-.84.91v.28h26V42.85H87.52A13.94,13.94,0,0,0,82.09,49.42Z"/><rect class="cls-4" x="115.69" y="69.56" width="25.96" height="26.31"/><path class="cls-4" d="M194.36,95.88v-21c-1.49-.9-8.66-5.06-14.44-4.53,0,0-.32-.29-.76-.78H168.4V95.88Z"/><path class="cls-4" d="M118.49,42.46h15.29A29.87,29.87,0,0,0,118.49,42.46Z"/><path class="cls-4" d="M141.65,42.46v-.74a18.67,18.67,0,0,0-3.23.74Z"/><path class="cls-4" d="M149.89,42.46h9.55a8.83,8.83,0,0,0,.15-1S154.46,39.05,149.89,42.46Z"/><path class="cls-4" d="M142,41.67v.79h6.3A12.67,12.67,0,0,0,142,41.67Z"/><path class="cls-4" d="M36.23,185.19V176.4H29.42c.41,1.48.79,3,1.11,4.73Z"/><path class="cls-4" d="M36.23,95.88v-7a20.64,20.64,0,0,0-2.17,4.44s-1.21,1-2.91,2.56Z"/><path class="cls-4" d="M88.29,42.46h.4l-.11-.11A2.27,2.27,0,0,0,88.29,42.46Z"/><path class="cls-4" d="M326.53,203.11v11.11l.42-.09a92,92,0,0,0,9.64-11Z"/><rect class="cls-4" x="36.62" y="149.69" width="25.96" height="26.31"/><path class="cls-4" d="M326.53,176.4v26.31h10.36c5.07-6.81,10.59-16.11,12.73-26.31Z"/><rect class="cls-4" x="36.62" y="96.27" width="25.96" height="26.31"/><rect class="cls-4" x="36.62" y="122.98" width="25.96" height="26.31"/><path class="cls-4" d="M62.58,95.88V69.56h-.29A28.35,28.35,0,0,1,48.5,76.82s-4.42,3-5.6,7.37c0,0-3.28,0-6.28,4.12v7.57Z"/><path class="cls-4" d="M53.81,197.63s3.76-1.11,8.77-2V176.4h-26v9.07C40.86,188.48,47,192.81,53.81,197.63Z"/><path class="cls-4" d="M273.82,256.13h16.54a8.52,8.52,0,0,0-1.13-.75A41.05,41.05,0,0,1,299.78,236v-6.13h-26Z"/><rect class="cls-4" x="247.46" y="149.69" width="25.96" height="26.31"/><rect class="cls-4" x="247.46" y="176.4" width="25.96" height="26.31"/><rect class="cls-4" x="247.46" y="122.98" width="25.96" height="26.31"/><path class="cls-4" d="M295.42,148.42s-3.24-3.53-7.66-14.14l-6.48-4.13s-.44-3.08-1-7.17h-6.45v26.31h23.3C296.57,149,296,148.71,295.42,148.42Z"/><path class="cls-4" d="M221.11,95.88h26V70A24.73,24.73,0,0,0,240,73s-2.66-2.65-8.25-.88c0,0,.65-1.55-2.56-2.55h-8.11Z"/><rect class="cls-4" x="247.46" y="203.11" width="25.96" height="26.31"/><rect class="cls-4" x="194.75" y="96.27" width="25.96" height="26.31"/><path class="cls-4" d="M247.46,69.93V95.88h16.93c-.35-.7-.71-1.45-1.09-2.26,0,0-5.59-9.73-7.07-10.61l-2.36-4.42,1.18-1.77s5.31,8.84,9.14,10.31c0,0,5-6.18-.3-16.79,0,0-5.17,2.43-12.37-.78h-2.65Z"/><path class="cls-4" d="M194.36,363.37H178c1.73,3.34,4.57,9,4.57,10.46,0,0,5.3,3.24,1.18,7.66,0,0,.61,5.83,5.32,8.19h5.29Z"/><path class="cls-4" d="M213.21,388.27a14.52,14.52,0,0,0,7.5-.35V363.37h-26v26.31h0A31.94,31.94,0,0,1,213.21,388.27Z"/><rect class="cls-4" x="247.46" y="229.82" width="25.96" height="26.31"/><path class="cls-4" d="M123.05,198.51s-.3,3.24,15.32-.59a13.91,13.91,0,0,1,3.28,3.09V176.4h-26v13.77C119.28,191.27,122,193.77,123.05,198.51Z"/><path class="cls-4" d="M273.82,282.84H296c0-1.1,0-2,0-2.71,0,0,4.71-3.24-2.95-6.48a10,10,0,0,0-2.94-8s4.83-5.31.71-9.16h-17Z"/><rect class="cls-4" x="247.46" y="256.53" width="25.96" height="26.31"/><rect class="cls-4" x="273.82" y="176.4" width="25.96" height="26.31"/><path class="cls-4" d="M193.78,390.08H190a10.19,10.19,0,0,0,2.63.55S193,390.4,193.78,390.08Z"/><rect class="cls-4" x="273.82" y="203.11" width="25.96" height="26.31"/><path class="cls-4" d="M300.17,229.82v5.72a44.06,44.06,0,0,1,5.27-4.62s.26-.41.75-1.1Z"/><rect class="cls-4" x="115.69" y="149.69" width="25.96" height="26.31"/><path class="cls-4" d="M250.6,69.17h0Z"/><path class="cls-4" d="M297.86,149.69h-24V176h26V150.76Z"/><rect class="cls-4" x="89.33" y="96.27" width="25.96" height="26.31"/><rect class="cls-4" x="115.69" y="96.27" width="25.96" height="26.31"/><rect class="cls-4" x="142.04" y="96.27" width="25.96" height="26.31"/><path class="cls-4" d="M115.29,190.05V176.4h-26v18.71C95.46,192.36,107.3,187.88,115.29,190.05Z"/><rect class="cls-4" x="168.4" y="96.27" width="25.96" height="26.31"/><rect class="cls-4" x="89.33" y="149.69" width="25.96" height="26.31"/><rect class="cls-4" x="89.33" y="122.98" width="25.96" height="26.31"/><path class="cls-4" d="M326,213.13s24.75-23,23.57-48L348.05,163s-9.43,5.6-15.92,4.42l-3.83,2.36s-3.24-2.66-8.84,1.76c0,0-4.71-7.66-10-5.3l3.53-3.54s-2.06-7.07-18.56-15.32c0,0-3.24-3.53-7.66-14.14l-6.48-4.13s-.89-6.18-1.77-12.67c0,0-3.54-4.71-7.37-5a56,56,0,0,1-.88-8.25s-3.24-.29-8-10.6c0,0-5.59-9.73-7.07-10.61l-2.36-4.42,1.18-1.77s5.31,8.84,9.14,10.31c0,0,5-6.18-.3-16.79,0,0-5.6,2.65-13.26-1.18,0,0-7.36,1.47-10.6,3.83,0,0-2.66-2.65-8.25-.88,0,0,1.76-4.13-14.44-3.24l4.71-1.18-9.72-1.77a2,2,0,0,0,.29-2.65c-.88-1.77-11.78-2.65-15.61,5.3,0,0,4.12,4.13-2.36,6.48,0,0-8.25-5.3-14.73-4.71,0,0-3.24-3-3.24-5.89,0,0-5.31-3-10.61-1.18,0,0-3.24-5.31-8-3.54,0,0-6.48-3.53,1.48-7.66a5.36,5.36,0,0,0-3-6.48s2.65-.3,3-4.13c0,0-5.6-2.65-10.32,1.48,0,0-4.71-3.24-13,.29,0,0-12.67-5-23.57,1.77h-5.31s-9.72,6.78-18.85-2.65c0,0-3.84,1.18-6.49,7.07,0,0-7.66,5.3-13.55,6.78,0,0-5.3,5.3-4.72,11.78A28.76,28.76,0,0,1,47.5,75.82s-4.42,3-5.6,7.37c0,0-5.59,0-8.84,9.13,0,0-10.31,8.25-13,15.91,0,0,6.78,13-7.66,33L16,147.42l-2.66,7.07s12.08,4.13,16.21,25.64c0,0,10.31,7.36,23.28,16.5,0,0,23.86-7.07,31.52-.59,0,0,33.59-18,37.72,1.47,0,0-.3,3.24,15.32-.59,0,0,10,6.19,2.95,16.21A13.21,13.21,0,0,1,138,223.74a49.2,49.2,0,0,1,1.47,5.59s21.22,20,20.92,33.3l-2.06,1.77s5.89,10.9,3.83,15.91-8.25,1.47-8.54,27.7c0,0,13.55,19.15,13.55,25.63,0,0-2.06,16.21,8.55,26.23,0,0,5.89,10.9,5.89,13,0,0,5.3,3.24,1.18,7.66,0,0,.88,8.55,8.84,9.14a32.14,32.14,0,0,1,20.62-2.36c11.2,2.65,23.87-10.61,29.76-20.33l7.07-5.31s5.9-7.66,2.36-12.67c0,0,1.47-4.12,5.6-4.71,0,0,13.85,0,8.25-20.33,0,0-5.3-3.54,6.78-8.84,0,0,3.83-2.36,5-5.6,0,0,16.5-3.54,18.26-13.55,0,0-.29-13-.29-16.8,0,0,4.71-3.24-2.95-6.48a10,10,0,0,0-2.94-8s5.89-6.48-.89-10.31a42.18,42.18,0,0,1,16.21-24.46S313.57,215.49,326,213.13Z"/><text class="cls-5" transform="translate(338.67 275.33)">ecoBantu</text><text class="cls-6" transform="translate(342 341) scale(1.02 1)">solutions</text></svg>